<svg id="svg" version="1.1" xmlns="http://www.w3.org/2000/svg" xmlns:xlink="http://www.w3.org/1999/xlink" width="400" height="398.7538940809969" viewBox="0, 0, 400,398.7538940809969"><g id="svgg"><path id="path0" d="M119.242 200.199 L 119.242 300.299 143.769 300.299 L 168.295 300.299 168.289 254.138 L 168.282 207.976 163.802 200.908 C 161.338 197.021,158.245 192.137,156.929 190.056 C 155.613 187.974,154.402 186.265,154.239 186.256 C 154.075 186.248,153.896 208.629,153.840 235.992 L 153.739 285.743 143.769 285.743 L 133.799 285.743 133.698 213.659 C 133.638 170.613,133.743 141.575,133.960 141.575 C 134.283 141.575,136.712 145.419,149.840 166.700 C 151.802 169.880,156.513 177.507,160.310 183.649 C 164.106 189.791,170.707 200.469,174.978 207.378 C 179.249 214.287,183.147 220.568,183.641 221.336 C 184.134 222.104,188.177 228.654,192.625 235.892 C 197.073 243.131,201.116 249.681,201.609 250.449 C 202.102 251.216,206.327 258.036,210.997 265.603 C 223.035 285.110,228.582 294.079,230.668 297.408 L 232.479 300.299 256.818 300.299 L 281.157 300.299 281.157 200.199 L 281.157 100.100 256.630 100.100 L 232.104 100.100 232.104 152.542 C 232.104 194.233,232.001 204.984,231.605 204.980 C 231.331 204.977,228.235 200.273,224.726 194.526 C 221.216 188.780,216.533 181.110,214.318 177.483 C 212.103 173.855,208.521 168.016,206.358 164.506 C 204.196 160.997,200.086 154.313,197.225 149.653 C 194.364 144.994,189.012 136.290,185.330 130.311 C 181.648 124.333,175.991 115.135,172.758 109.870 L 166.880 100.299 158.814 100.191 C 154.022 100.127,150.748 100.234,150.748 100.455 C 150.748 100.659,152.160 103.130,153.886 105.946 C 160.306 116.420,167.915 128.872,173.099 137.388 C 176.036 142.213,180.509 149.528,183.038 153.642 C 185.568 157.757,189.742 164.576,192.315 168.797 C 203.797 187.630,214.183 204.622,221.748 216.949 C 224.104 220.788,228.549 228.056,231.626 233.101 C 234.703 238.146,239.254 245.580,241.741 249.621 L 246.261 256.969 246.461 185.813 L 246.660 114.656 256.630 114.656 L 266.600 114.656 266.600 200.199 L 266.600 285.743 253.544 285.848 L 240.488 285.953 239.064 283.654 C 238.281 282.390,233.883 275.254,229.292 267.797 C 224.700 260.339,219.831 252.443,218.472 250.249 C 217.112 248.056,213.227 241.775,209.838 236.291 C 206.449 230.808,200.165 220.668,195.874 213.759 C 191.583 206.849,185.985 197.787,183.435 193.619 C 180.885 189.452,176.346 182.103,173.347 177.288 L 167.896 168.534 167.896 154.821 L 167.896 141.109 159.821 128.281 L 151.745 115.454 151.640 128.315 C 151.582 135.389,151.399 141.176,151.233 141.176 C 151.068 141.176,148.802 137.722,146.198 133.500 C 143.594 129.277,139.182 122.144,136.394 117.647 C 133.606 113.151,130.027 107.363,128.441 104.786 L 125.556 100.100 122.399 100.100 L 119.242 100.100 119.242 200.199 " stroke="none" fill="#f8f8f8" fill-rule="evenodd"></path><path id="path1" d="M0.000 199.402 L 0.000 398.804 200.000 398.804 L 400.000 398.804 400.000 199.402 L 400.000 0.000 200.000 0.000 L 0.000 0.000 0.000 199.402 M133.969 112.762 C 138.418 119.945,144.103 129.142,146.603 133.199 L 151.147 140.575 151.147 127.682 C 151.147 112.604,150.861 113.104,155.382 120.270 C 157.170 123.105,160.807 128.875,163.464 133.093 L 168.295 140.763 168.295 154.527 L 168.295 168.292 173.609 176.768 C 176.531 181.430,181.450 189.372,184.539 194.417 C 187.628 199.462,193.358 208.745,197.271 215.048 C 201.185 221.350,208.681 233.463,213.929 241.967 C 219.177 250.470,226.535 262.360,230.280 268.389 C 234.025 274.418,237.812 280.609,238.696 282.148 L 240.304 284.945 253.253 284.945 L 266.201 284.945 266.201 200.199 L 266.201 115.454 256.630 115.454 L 247.059 115.454 247.059 186.540 C 247.059 252.213,247.009 257.627,246.404 257.627 C 246.043 257.627,245.637 257.338,245.502 256.985 C 245.366 256.631,243.283 253.132,240.873 249.208 C 235.396 240.291,229.325 230.365,222.731 219.541 C 219.925 214.935,215.259 207.308,212.364 202.592 C 209.468 197.876,202.557 186.570,197.006 177.468 C 191.455 168.365,184.546 157.059,181.652 152.343 C 163.510 122.774,149.950 100.419,149.950 100.080 C 149.950 99.829,153.087 99.724,158.582 99.793 L 167.214 99.900 172.498 108.475 C 175.404 113.190,180.269 121.064,183.308 125.971 C 186.347 130.878,189.198 135.544,189.642 136.339 C 190.087 137.135,190.919 138.504,191.490 139.382 C 193.506 142.480,202.991 157.991,202.991 158.191 C 202.991 158.303,203.503 159.141,204.130 160.054 C 204.756 160.968,207.683 165.663,210.634 170.489 C 213.585 175.314,217.770 182.134,219.934 185.643 C 222.099 189.153,225.543 194.806,227.588 198.205 C 229.632 201.605,231.307 204.207,231.309 203.988 C 231.311 203.769,231.309 180.502,231.306 152.284 C 231.303 124.065,231.410 100.691,231.545 100.339 C 231.919 99.365,281.340 99.362,281.714 100.336 C 282.079 101.289,281.988 299.622,281.622 300.202 C 281.372 300.598,276.106 300.682,256.629 300.601 L 231.953 300.499 226.052 290.927 C 222.807 285.663,219.117 279.701,217.852 277.678 C 216.588 275.655,212.502 269.048,208.774 262.996 C 205.045 256.943,198.518 246.395,194.270 239.555 C 190.022 232.715,184.350 223.529,181.666 219.143 C 178.982 214.756,173.724 206.231,169.981 200.199 C 154.500 175.249,149.982 167.948,146.760 162.679 C 138.991 149.973,135.392 144.208,134.736 143.414 C 134.072 142.612,134.043 145.969,134.118 213.759 L 134.197 284.945 143.769 284.945 L 153.340 284.945 153.432 235.095 C 153.500 198.020,153.641 185.244,153.980 185.244 C 154.388 185.244,158.084 190.834,166.353 203.954 L 169.096 208.306 168.995 254.402 L 168.893 300.499 143.868 300.601 L 118.843 300.704 118.843 200.202 L 118.843 99.701 122.361 99.701 L 125.879 99.701 133.969 112.762 " stroke="none" fill="#040404" fill-rule="evenodd"></path><path id="path2" d="M120.837 99.947 C 123.179 100.244,126.332 100.276,126.161 100.000 C 126.058 99.835,124.595 99.728,122.908 99.761 C 121.221 99.794,120.289 99.877,120.837 99.947 M155.214 99.998 C 157.122 100.070,160.353 100.071,162.393 99.998 C 164.433 99.926,162.871 99.866,158.923 99.866 C 154.975 99.865,153.306 99.925,155.214 99.998 M231.500 151.944 C 231.500 180.349,231.547 191.969,231.605 177.767 C 231.663 163.564,231.663 140.324,231.605 126.122 C 231.547 111.919,231.500 123.539,231.500 151.944 M281.752 199.601 C 281.752 254.217,281.798 276.501,281.854 249.120 C 281.911 221.740,281.911 177.054,281.854 149.818 C 281.798 122.583,281.752 144.985,281.752 199.601 M246.859 115.155 C 246.859 115.319,251.256 115.454,256.630 115.454 C 262.004 115.454,266.401 115.319,266.401 115.155 C 266.401 114.990,262.004 114.855,256.630 114.855 C 251.256 114.855,246.859 114.990,246.859 115.155 M172.631 175.673 C 172.846 176.112,173.315 176.830,173.672 177.268 L 174.321 178.066 173.930 177.268 C 173.714 176.830,173.246 176.112,172.889 175.673 L 172.239 174.875 172.631 175.673 M153.406 185.311 C 153.260 185.457,153.143 185.771,153.147 186.009 C 153.150 186.246,153.316 186.183,153.515 185.868 C 153.830 185.371,153.973 185.371,154.606 185.868 C 155.272 186.392,155.288 186.382,154.787 185.743 C 154.203 184.998,153.834 184.883,153.406 185.311 M168.694 254.317 C 168.584 279.805,168.630 300.523,168.795 300.357 C 168.961 300.192,169.050 279.338,168.995 254.016 L 168.893 207.976 168.694 254.317 M204.535 256.231 C 204.750 256.670,205.219 257.388,205.576 257.827 L 206.225 258.624 205.834 257.827 C 205.619 257.388,205.150 256.670,204.793 256.231 L 204.143 255.434 204.535 256.231 M245.497 256.973 C 245.838 257.860,247.260 257.825,247.252 256.929 C 247.247 256.356,247.181 256.334,246.884 256.804 C 246.581 257.282,246.416 257.289,245.884 256.847 C 245.338 256.395,245.282 256.413,245.497 256.973 M133.998 285.244 C 133.998 285.409,138.395 285.543,143.769 285.543 C 149.143 285.543,153.539 285.409,153.539 285.244 C 153.539 285.080,149.143 284.945,143.769 284.945 C 138.395 284.945,133.998 285.080,133.998 285.244 M240.341 285.244 C 240.442 285.409,246.348 285.543,253.463 285.543 C 260.579 285.543,266.401 285.409,266.401 285.244 C 266.401 285.080,260.496 284.945,253.278 284.945 C 246.061 284.945,240.239 285.080,240.341 285.244 " stroke="none" fill="#5c5c5c" fill-rule="evenodd"></path><path id="path3" d="M244.167 100.000 C 250.693 100.061,261.371 100.061,267.896 100.000 C 274.422 99.938,269.083 99.888,256.032 99.888 C 242.981 99.888,237.642 99.938,244.167 100.000 M168.075 154.536 C 168.075 161.994,168.129 164.989,168.195 161.191 C 168.260 157.393,168.260 151.291,168.195 147.631 C 168.129 143.972,168.075 147.079,168.075 154.536 " stroke="none" fill="#747474" fill-rule="evenodd"></path><path id="path4" d="M231.705 152.310 C 231.705 193.705,231.602 204.561,231.206 204.721 C 230.909 204.841,230.989 204.935,231.406 204.954 C 232.067 204.983,232.104 202.234,232.104 152.542 C 232.104 123.699,232.014 100.100,231.904 100.100 C 231.795 100.100,231.705 123.594,231.705 152.310 M281.353 200.199 C 281.353 255.145,281.399 277.622,281.456 250.150 C 281.512 222.677,281.512 177.722,281.456 150.249 C 281.399 122.777,281.353 145.254,281.353 200.199 M119.040 200.199 C 119.040 254.267,119.086 276.386,119.143 249.352 C 119.199 222.318,119.199 178.081,119.143 151.047 C 119.086 124.013,119.040 146.132,119.040 200.199 M246.648 114.875 C 246.501 115.113,246.488 115.415,246.620 115.547 C 246.752 115.678,246.859 115.577,246.859 115.321 C 246.859 114.979,249.452 114.855,256.630 114.855 L 266.401 114.855 266.401 200.199 L 266.401 285.543 253.519 285.543 C 243.778 285.543,240.502 285.422,240.079 285.045 C 239.603 284.620,239.599 284.651,240.053 285.250 C 240.545 285.900,241.562 285.945,253.593 285.848 L 266.600 285.743 266.600 200.199 L 266.600 114.656 256.758 114.549 C 250.010 114.476,246.831 114.579,246.648 114.875 M151.327 115.759 C 151.220 116.037,151.184 120.927,151.246 126.627 L 151.360 136.989 151.453 126.298 C 151.522 118.337,151.663 115.679,152.006 115.891 C 152.291 116.067,152.358 116.000,152.182 115.715 C 151.814 115.119,151.567 115.132,151.327 115.759 M246.559 186.763 C 246.485 239.638,246.347 256.807,246.000 256.592 C 245.703 256.409,245.649 256.483,245.846 256.803 C 246.770 258.298,246.855 251.813,246.760 186.619 L 246.658 116.650 246.559 186.763 M151.239 138.385 C 151.239 139.153,151.321 139.467,151.421 139.083 C 151.522 138.699,151.522 138.071,151.421 137.687 C 151.321 137.303,151.239 137.617,151.239 138.385 M133.698 213.659 L 133.799 285.743 143.735 285.743 C 151.469 285.743,153.695 285.630,153.775 285.234 C 153.832 284.955,153.787 284.910,153.676 285.135 C 153.545 285.397,149.988 285.543,143.735 285.543 L 133.998 285.543 133.998 213.735 C 133.998 159.558,134.111 141.997,134.458 142.212 C 134.744 142.388,134.811 142.321,134.634 142.036 C 134.478 141.782,134.180 141.575,133.973 141.575 C 133.738 141.575,133.635 168.665,133.698 213.659 M153.794 185.720 C 153.654 185.861,153.584 208.154,153.637 235.261 L 153.736 284.546 153.838 235.516 C 153.912 200.314,154.065 186.409,154.381 186.214 C 154.653 186.046,154.674 185.851,154.435 185.704 C 154.223 185.573,153.935 185.580,153.794 185.720 M155.083 187.238 C 155.299 187.677,155.767 188.395,156.124 188.833 L 156.774 189.631 156.382 188.833 C 156.167 188.395,155.698 187.677,155.341 187.238 L 154.692 186.441 155.083 187.238 M164.256 201.595 C 164.471 202.034,164.940 202.752,165.297 203.190 L 165.946 203.988 165.555 203.190 C 165.339 202.752,164.871 202.034,164.514 201.595 L 163.864 200.798 164.256 201.595 M173.827 205.982 C 174.043 206.421,174.511 207.139,174.868 207.577 L 175.518 208.375 175.126 207.577 C 174.911 207.139,174.442 206.421,174.085 205.982 L 173.436 205.184 173.827 205.982 M168.295 253.958 L 168.494 300.499 168.596 254.259 C 168.652 228.827,168.562 207.884,168.396 207.718 C 168.231 207.553,168.185 228.361,168.295 253.958 M131.734 300.598 C 138.494 300.659,149.441 300.659,156.061 300.598 C 162.680 300.537,157.149 300.486,143.769 300.486 C 130.389 300.487,124.973 300.537,131.734 300.598 M244.766 300.598 C 251.401 300.659,262.258 300.659,268.893 300.598 C 275.528 300.537,270.100 300.486,256.830 300.486 C 243.559 300.486,238.131 300.537,244.766 300.598 " stroke="none" fill="#7c7c7c" fill-rule="evenodd"></path></g></svg>